<?xml version="1.0" encoding="UTF-8" standalone="no"?>
<svg
   xmlns:dc="http://purl.org/dc/elements/1.1/"
   xmlns:cc="http://creativecommons.org/ns#"
   xmlns:rdf="http://www.w3.org/1999/02/22-rdf-syntax-ns#"
   xmlns:svg="http://www.w3.org/2000/svg"
   xmlns="http://www.w3.org/2000/svg"
   xmlns:xlink="http://www.w3.org/1999/xlink"
   xml:space="preserve"
   enable-background="new 0 0 600 600"
   viewBox="0 0 212 304"
   height="380"
   width="265"
   y="0px"
   x="0px"
   id="Layer_1"
   version="1.1"><metadata
   id="metadata4422"><rdf:RDF><cc:Work
       rdf:about=""><dc:format>image/svg+xml</dc:format><dc:type
         rdf:resource="http://purl.org/dc/dcmitype/StillImage" /><dc:title></dc:title></cc:Work></rdf:RDF></metadata><defs
   id="defs4420"><linearGradient
   id="linearGradient5425"><stop
     id="stop5421"
     offset="0"
     style="stop-color:#ffffff;stop-opacity:1;" /><stop
     id="stop5423"
     offset="1"
     style="stop-color:#ffffff;stop-opacity:0;" /></linearGradient><linearGradient
   id="linearGradient5417"><stop
     id="stop5413"
     offset="0"
     style="stop-color:#ffffff;stop-opacity:1;" /><stop
     id="stop5415"
     offset="1"
     style="stop-color:#ffffff;stop-opacity:0;" /></linearGradient><linearGradient
   id="linearGradient5401"><stop
     id="stop5397"
     offset="0"
     style="stop-color:#ffffff;stop-opacity:1;" /><stop
     id="stop5399"
     offset="1"
     style="stop-color:#ffffff;stop-opacity:0;" /></linearGradient><linearGradient
   id="linearGradient5379"><stop
     id="stop5375"
     offset="0"
     style="stop-color:#ffccaa;stop-opacity:1;" /><stop
     id="stop5377"
     offset="1"
     style="stop-color:#fff4e6;stop-opacity:1" /></linearGradient>
	
	
	<linearGradient
   id="SVGID_1_"
   gradientUnits="userSpaceOnUse"
   x1="327.1875"
   y1="306.1152"
   x2="327.1875"
   y2="469.702">
		<stop
   offset="0"
   style="stop-color:#FFFAF9"
   id="stop4134" />
		<stop
   offset="1"
   style="stop-color:#ffccaa;stop-opacity:1"
   id="stop4136" />
	</linearGradient>
	
	
	
	
	
	<linearGradient
   id="SVGID_5_"
   gradientUnits="userSpaceOnUse"
   x1="392.5957"
   y1="186.23441"
   x2="361.72839"
   y2="161.2386">
		<stop
   offset="0"
   style="stop-color:#003623"
   id="stop4194" />
		<stop
   offset="1"
   style="stop-color:#4C8A00"
   id="stop4196" />
	</linearGradient>
	
	
	
	
	
	
	
	
	
	
	
	
	
	
	
	
	
	
	
	
	
	
	
	
	
	
	
	
<linearGradient
   gradientUnits="userSpaceOnUse"
   y2="179.16702"
   x2="336.34854"
   y1="301.81201"
   x1="308.37201"
   id="linearGradient5381"
   xlink:href="#linearGradient5379" /><linearGradient
   gradientUnits="userSpaceOnUse"
   y2="237.6801"
   x2="321.75049"
   y1="237.6801"
   x1="264.508"
   id="linearGradient5403"
   xlink:href="#linearGradient5401" /><linearGradient
   gradientUnits="userSpaceOnUse"
   y2="221.41029"
   x2="356.76752"
   y1="252.37469"
   x1="385.69461"
   id="linearGradient5411"
   xlink:href="#linearGradient5401" /><linearGradient
   gradientUnits="userSpaceOnUse"
   y2="222.42528"
   x2="326.31793"
   y1="262.68887"
   x1="324.81863"
   id="linearGradient5419"
   xlink:href="#linearGradient5417" /><linearGradient
   gradientUnits="userSpaceOnUse"
   y2="281.05322"
   x2="419.48965"
   y1="292.21808"
   x1="336.4678"
   id="linearGradient5427"
   xlink:href="#linearGradient5425" /><linearGradient
   y2="179.16702"
   x2="336.34854"
   y1="301.81201"
   x1="308.37201"
   gradientUnits="userSpaceOnUse"
   id="linearGradient5518"
   xlink:href="#linearGradient5379" /></defs>
<g
   transform="matrix(1.2545539,0,0,1.2280584,-103.2693,-225.08677)"
   id="g4217">
		<g
   id="g4215">
			<g
   id="g4213">
				
			</g>
		</g>
	</g>
<g
   transform="translate(-27.963252,-171.0625)"
   id="g5516"><g
   transform="translate(-194,28)"
   id="g5580"><ellipse
     cx="326.043"
     cy="322.952"
     rx="103.355"
     ry="38.591"
     id="ellipse4132"
     style="fill:#e8ba52" /><path
     d="m 431.688,332 h -209 l 21,94 h 0.264 c 0,0 -0.009,-0.194 -0.009,-0.166 0,11.275 38.311,20.291 85.57,20.291 47.259,0 85.57,-8.953 85.57,-20.229 0,-0.028 -0.009,0.104 -0.009,0.104 h 0.009 z"
     id="path4139"
     style="fill:url(#SVGID_1_)" /><g
     id="g4159">
		<g
   id="g4145">
			<polyline
   points="225.688,327.5 240.638,335.5 255.585,327.5 270.537,335.5 285.489,327.5 300.444,335.5      315.398,327.5    "
   id="polyline4141"
   style="fill:#ffffff" />
			<polyline
   stroke-miterlimit="10"
   points="225.688,327.5 240.638,335.5      255.585,327.5 270.537,335.5 285.489,327.5 300.444,335.5 315.398,327.5    "
   id="polyline4143"
   style="fill:none;stroke:#fffaf9;stroke-width:9;stroke-miterlimit:10" />
		</g>
		<g
   id="g4151">
			<polyline
   points="311.688,327.5 326.639,335.5 341.585,327.5 356.537,335.5 371.489,327.5 386.443,335.5      401.398,327.5    "
   id="polyline4147"
   style="fill:#ffffff" />
			<polyline
   stroke-miterlimit="10"
   points="311.688,327.5 326.639,335.5      341.585,327.5 356.537,335.5 371.489,327.5 386.443,335.5 401.398,327.5    "
   id="polyline4149"
   style="fill:none;stroke:#fffaf9;stroke-width:9;stroke-miterlimit:10" />
		</g>
		<g
   id="g4157">
			<polyline
   points="339.688,327.5 354.639,335.5 369.585,327.5 384.537,335.5 399.489,327.5 414.443,335.5      429.398,327.5    "
   id="polyline4153"
   style="fill:#ffffff" />
			<polyline
   stroke-miterlimit="10"
   points="339.688,327.5 354.639,335.5      369.585,327.5 384.537,335.5 399.489,327.5 414.443,335.5 429.398,327.5    "
   id="polyline4155"
   style="fill:none;stroke:#fffaf9;stroke-width:9;stroke-miterlimit:10" />
		</g>
	</g><g
     id="g4192">
		
			<radialGradient
   id="SVGID_2_"
   cx="407.6445"
   cy="214.94679"
   r="23.988701"
   gradientTransform="matrix(0.9674,0.2532,-0.2532,0.9674,31.1601,-86.9714)"
   gradientUnits="userSpaceOnUse">
			<stop
   offset="0"
   style="stop-color:#ED1C24"
   id="stop4171" />
			<stop
   offset="1"
   style="stop-color:#BE1E2D"
   id="stop4173" />
		</radialGradient>
		<path
   d="m 397.063,226.998 c -3.613,13.806 -17.735,22.067 -31.54,18.453 -13.806,-3.613 -22.066,-17.733 -18.453,-31.539 3.613,-13.805 13.679,-15.158 29.586,-10.994 17.206,4.503 24.022,10.274 20.407,24.08 z"
   id="path4176"
   style="fill:url(#SVGID_2_)" />
		
			<radialGradient
   id="SVGID_3_"
   cx="398.3125"
   cy="191.4131"
   r="8.8549004"
   gradientTransform="matrix(0.9674,0.2532,-0.3104,1.1858,36.129,-106.9412)"
   gradientUnits="userSpaceOnUse">
			<stop
   offset="0"
   style="stop-color:#F4F4F4"
   id="stop4178" />
			<stop
   offset="1"
   style="stop-color:#FFFFFF;stop-opacity:0"
   id="stop4180" />
		</radialGradient>
		<path
   d="m 368.785,222.655 c -1.783,6.813 -6.249,11.545 -9.973,10.57 -3.725,-0.975 -5.297,-7.288 -3.514,-14.101 1.783,-6.813 6.247,-11.546 9.972,-10.571 3.724,0.976 5.298,7.289 3.515,14.102 z"
   id="path4183"
   style="fill:url(#SVGID_3_)" />
		
			<radialGradient
   id="SVGID_4_"
   cx="407.85941"
   cy="196.25929"
   r="4.4905"
   gradientTransform="matrix(0.9674,0.2532,-0.2532,0.9674,31.1596,-86.9724)"
   gradientUnits="userSpaceOnUse">
			<stop
   offset="0"
   style="stop-color:#000000"
   id="stop4185" />
			<stop
   offset="1"
   style="stop-color:#000000;stop-opacity:0"
   id="stop4187" />
		</radialGradient>
		<path
   d="m 382.035,207.732 c -0.188,0.717 -3.028,0.595 -6.345,-0.273 -3.317,-0.868 -5.854,-2.154 -5.666,-2.871 0.188,-0.717 3.028,-0.595 6.346,0.273 3.317,0.868 5.854,2.154 5.665,2.871 z"
   id="path4190"
   style="fill:url(#SVGID_4_)" />
	</g><g
     style="fill:url(#linearGradient5381);fill-opacity:1;stroke:none;stroke-opacity:1"
     id="g4169">
		<path
   d="m 327.188,301.813 c -17.816,11.189 -29.254,19.01 -38.721,-0.984 -6.086,13.886 -85.839,12.138 -51.354,-8.412 -8.79,-5.554 -7.535,-12.16 -3.478,-23.269 3.381,-9.441 16.356,-22.081 26.499,-22.081 -2.028,-25.549 17.564,-27.195 36.158,-33.845 24.396,-8.725 27.515,-34.786 30.896,-50.336 10.143,16.661 5.688,46.101 29.355,51.654 15.551,3.889 33.708,3.379 38.406,28.883 1.912,10.378 16.964,5.442 30.872,22.147 6.146,7.383 12.883,38.605 0.353,41.961 -23.068,6.178 -12.627,-21.155 -28.54,1.664 -8.383,6.668 -13.963,-21.211 -30.201,-11.41 -16.896,10.197 -10.89,18.121 -27.745,7.383"
   id="path4167"
   style="fill:url(#linearGradient5518);fill-opacity:1;stroke:none;stroke-opacity:1" />
	</g><polygon
     points="376.656,205.917 375.688,144 380.688,144 "
     id="polygon4199"
     style="fill:url(#SVGID_5_)" /><g
     id="g4413"
     style="opacity:0.5">
		<polygon
   points="228.408,340.116 239.747,346.23 254.01,432.584 246.688,425.5 "
   id="polygon4397" />
		<polygon
   points="255.408,340.324 265.747,346.543 276.953,438.624 268.104,433 "
   id="polygon4399" />
		<polygon
   points="283.208,339.162 293.318,345.838 301.152,441.329 294.349,438.106 "
   id="polygon4401" />
		<polygon
   points="312.107,340.17 322.223,346.835 330.267,438.966 323.346,439.104 "
   id="polygon4403" />
		<polygon
   points="342.255,338.525 351.783,346.006 353.239,438.613 345.25,438.05 "
   id="polygon4405" />
		<polygon
   points="371.377,341.54 380.698,349.29 379.15,432.965 372.644,438.184 "
   id="polygon4407" />
		<polygon
   points="397.492,342.247 407.162,349.805 400.018,425.374 393.933,432.55 "
   id="polygon4409" />
		<polygon
   points="418.358,343.282 424.053,350.114 415.302,419.131 411.051,425.719 "
   id="polygon4411" />
	</g><path
     id="path5385"
     d="m 321.7505,207.20049 c -35.5245,25.37465 -33.79216,12.91275 -47.70433,26.38963 -13.91217,13.47688 -1.08033,23.9078 -8.62738,33.49453 -7.5876,9.63823 34.08318,-48.39451 56.33171,-59.88416 z"
     style="fill:url(#linearGradient5403);fill-opacity:1;stroke:none;stroke-width:1px;stroke-linecap:butt;stroke-linejoin:miter;stroke-opacity:1" /><path
     id="path5389"
     d="m 356.76751,221.41029 c 21.8222,6.59741 34.50952,13.70231 34.50952,28.9271 0,15.22479 -26.38963,-22.83718 -34.50952,-28.9271 z"
     style="fill:url(#linearGradient5411);fill-opacity:1;stroke:none;stroke-width:1px;stroke-linecap:butt;stroke-linejoin:miter;stroke-opacity:1" /><path
     id="path5393"
     d="m 244.10409,300.57919 c 31.97205,-1.01499 59.37667,-14.20981 75.61644,-13.70231 16.23977,0.50749 81.19887,10.14986 92.36371,4.56743 11.16484,-5.58242 12.68732,-18.26974 -16.74727,-28.4196 -29.43459,-10.14986 -140.57553,34.50952 -151.23288,37.55448 z"
     style="fill:url(#linearGradient5427);fill-opacity:1;stroke:none;stroke-width:1px;stroke-linecap:butt;stroke-linejoin:miter;stroke-opacity:1" /><path
     id="path5395"
     d="m 326.31794,222.42528 c 24.86715,12.68732 31.26687,12.48964 32.98704,27.40462 0,0 -28.47758,2.91115 -58.36169,16.74726 -83.41786,38.62183 -1.52248,-11.16484 25.37465,-44.15188 z"
     style="fill:url(#linearGradient5419);fill-opacity:1;stroke:none;stroke-width:1px;stroke-linecap:butt;stroke-linejoin:miter;stroke-opacity:1" /></g>
</g></svg>